G04*
G04 #@! TF.GenerationSoftware,Altium Limited,Altium Designer,24.7.2 (38)*
G04*
G04 Layer_Color=8388736*
%FSAX44Y44*%
%MOMM*%
G71*
G04*
G04 #@! TF.SameCoordinates,93A25BCA-29EF-4DAC-9895-B02BB0167CD6*
G04*
G04*
G04 #@! TF.FilePolarity,Negative*
G04*
G01*
G75*
G04:AMPARAMS|DCode=17|XSize=1.5032mm|YSize=0.9632mm|CornerRadius=0.1966mm|HoleSize=0mm|Usage=FLASHONLY|Rotation=90.000|XOffset=0mm|YOffset=0mm|HoleType=Round|Shape=RoundedRectangle|*
%AMROUNDEDRECTD17*
21,1,1.5032,0.5700,0,0,90.0*
21,1,1.1100,0.9632,0,0,90.0*
1,1,0.3932,0.2850,0.5550*
1,1,0.3932,0.2850,-0.5550*
1,1,0.3932,-0.2850,-0.5550*
1,1,0.3932,-0.2850,0.5550*
%
%ADD17ROUNDEDRECTD17*%
G04:AMPARAMS|DCode=18|XSize=1.5032mm|YSize=0.9632mm|CornerRadius=0.1966mm|HoleSize=0mm|Usage=FLASHONLY|Rotation=180.000|XOffset=0mm|YOffset=0mm|HoleType=Round|Shape=RoundedRectangle|*
%AMROUNDEDRECTD18*
21,1,1.5032,0.5700,0,0,180.0*
21,1,1.1100,0.9632,0,0,180.0*
1,1,0.3932,-0.5550,0.2850*
1,1,0.3932,0.5550,0.2850*
1,1,0.3932,0.5550,-0.2850*
1,1,0.3932,-0.5550,-0.2850*
%
%ADD18ROUNDEDRECTD18*%
G04:AMPARAMS|DCode=19|XSize=0.8532mm|YSize=1.4032mm|CornerRadius=0.1504mm|HoleSize=0mm|Usage=FLASHONLY|Rotation=90.000|XOffset=0mm|YOffset=0mm|HoleType=Round|Shape=RoundedRectangle|*
%AMROUNDEDRECTD19*
21,1,0.8532,1.1025,0,0,90.0*
21,1,0.5525,1.4032,0,0,90.0*
1,1,0.3007,0.5513,0.2763*
1,1,0.3007,0.5513,-0.2763*
1,1,0.3007,-0.5513,-0.2763*
1,1,0.3007,-0.5513,0.2763*
%
%ADD19ROUNDEDRECTD19*%
%ADD20C,1.8500*%
%ADD21R,1.8500X1.8500*%
%ADD22C,5.6032*%
%ADD23C,1.7032*%
G04:AMPARAMS|DCode=24|XSize=1.7032mm|YSize=1.7032mm|CornerRadius=0.4766mm|HoleSize=0mm|Usage=FLASHONLY|Rotation=180.000|XOffset=0mm|YOffset=0mm|HoleType=Round|Shape=RoundedRectangle|*
%AMROUNDEDRECTD24*
21,1,1.7032,0.7500,0,0,180.0*
21,1,0.7500,1.7032,0,0,180.0*
1,1,0.9532,-0.3750,0.3750*
1,1,0.9532,0.3750,0.3750*
1,1,0.9532,0.3750,-0.3750*
1,1,0.9532,-0.3750,-0.3750*
%
%ADD24ROUNDEDRECTD24*%
G04:AMPARAMS|DCode=25|XSize=1.7032mm|YSize=1.7032mm|CornerRadius=0.4766mm|HoleSize=0mm|Usage=FLASHONLY|Rotation=270.000|XOffset=0mm|YOffset=0mm|HoleType=Round|Shape=RoundedRectangle|*
%AMROUNDEDRECTD25*
21,1,1.7032,0.7500,0,0,270.0*
21,1,0.7500,1.7032,0,0,270.0*
1,1,0.9532,-0.3750,-0.3750*
1,1,0.9532,-0.3750,0.3750*
1,1,0.9532,0.3750,0.3750*
1,1,0.9532,0.3750,-0.3750*
%
%ADD25ROUNDEDRECTD25*%
D17*
X00764430Y00223520D02*
D03*
X00782330Y00223520D02*
D03*
X00801360Y00223520D02*
D03*
X00819260Y00223520D02*
D03*
X00838190Y00223520D02*
D03*
X00856090Y00223520D02*
D03*
X00857260Y00284480D02*
D03*
X00839360Y00284480D02*
D03*
X00820530Y00284480D02*
D03*
X00802630Y00284480D02*
D03*
X00782430Y00284480D02*
D03*
X00764530Y00284480D02*
D03*
D18*
X00829310Y00245100D02*
D03*
X00858520Y00245000D02*
D03*
X00858520Y00262900D02*
D03*
X00829310Y00263000D02*
D03*
D19*
X00768840Y00244500D02*
D03*
X00798340Y00244500D02*
D03*
X00798340Y00263500D02*
D03*
X00768840Y00263500D02*
D03*
X00768840Y00254000D02*
D03*
D20*
X00810260Y00203200D02*
D03*
D21*
X00810260Y00304800D02*
D03*
D22*
X00902970Y00177800D02*
D03*
X00900430Y00334010D02*
D03*
D23*
X00798830Y00159210D02*
D03*
X00824230Y00159210D02*
D03*
X00906780Y00254000D02*
D03*
X00906780Y00279400D02*
D03*
X00849630Y00346710D02*
D03*
X00824230Y00346710D02*
D03*
D24*
X00798830Y00346710D02*
D03*
X00849630Y00159210D02*
D03*
D25*
X00906780Y00228600D02*
D03*
M02*
