G04*
G04 #@! TF.GenerationSoftware,Altium Limited,Altium Designer,24.7.2 (38)*
G04*
G04 Layer_Physical_Order=1*
G04 Layer_Color=9809361*
%FSAX44Y44*%
%MOMM*%
G71*
G04*
G04 #@! TF.SameCoordinates,93A25BCA-29EF-4DAC-9895-B02BB0167CD6*
G04*
G04*
G04 #@! TF.FilePolarity,Positive*
G04*
G01*
G75*
%ADD13C,0.2540*%
G04:AMPARAMS|DCode=14|XSize=1.3mm|YSize=0.76mm|CornerRadius=0.095mm|HoleSize=0mm|Usage=FLASHONLY|Rotation=90.000|XOffset=0mm|YOffset=0mm|HoleType=Round|Shape=RoundedRectangle|*
%AMROUNDEDRECTD14*
21,1,1.3000,0.5700,0,0,90.0*
21,1,1.1100,0.7600,0,0,90.0*
1,1,0.1900,0.2850,0.5550*
1,1,0.1900,0.2850,-0.5550*
1,1,0.1900,-0.2850,-0.5550*
1,1,0.1900,-0.2850,0.5550*
%
%ADD14ROUNDEDRECTD14*%
G04:AMPARAMS|DCode=15|XSize=1.3mm|YSize=0.76mm|CornerRadius=0.095mm|HoleSize=0mm|Usage=FLASHONLY|Rotation=180.000|XOffset=0mm|YOffset=0mm|HoleType=Round|Shape=RoundedRectangle|*
%AMROUNDEDRECTD15*
21,1,1.3000,0.5700,0,0,180.0*
21,1,1.1100,0.7600,0,0,180.0*
1,1,0.1900,-0.5550,0.2850*
1,1,0.1900,0.5550,0.2850*
1,1,0.1900,0.5550,-0.2850*
1,1,0.1900,-0.5550,-0.2850*
%
%ADD15ROUNDEDRECTD15*%
G04:AMPARAMS|DCode=16|XSize=0.65mm|YSize=1.2mm|CornerRadius=0.0488mm|HoleSize=0mm|Usage=FLASHONLY|Rotation=90.000|XOffset=0mm|YOffset=0mm|HoleType=Round|Shape=RoundedRectangle|*
%AMROUNDEDRECTD16*
21,1,0.6500,1.1025,0,0,90.0*
21,1,0.5525,1.2000,0,0,90.0*
1,1,0.0975,0.5513,0.2763*
1,1,0.0975,0.5513,-0.2763*
1,1,0.0975,-0.5513,-0.2763*
1,1,0.0975,-0.5513,0.2763*
%
%ADD16ROUNDEDRECTD16*%
%ADD20C,1.8500*%
%ADD21R,1.8500X1.8500*%
%ADD26C,5.4000*%
%ADD27C,1.5000*%
G04:AMPARAMS|DCode=28|XSize=1.5mm|YSize=1.5mm|CornerRadius=0.375mm|HoleSize=0mm|Usage=FLASHONLY|Rotation=180.000|XOffset=0mm|YOffset=0mm|HoleType=Round|Shape=RoundedRectangle|*
%AMROUNDEDRECTD28*
21,1,1.5000,0.7500,0,0,180.0*
21,1,0.7500,1.5000,0,0,180.0*
1,1,0.7500,-0.3750,0.3750*
1,1,0.7500,0.3750,0.3750*
1,1,0.7500,0.3750,-0.3750*
1,1,0.7500,-0.3750,-0.3750*
%
%ADD28ROUNDEDRECTD28*%
G04:AMPARAMS|DCode=29|XSize=1.5mm|YSize=1.5mm|CornerRadius=0.375mm|HoleSize=0mm|Usage=FLASHONLY|Rotation=270.000|XOffset=0mm|YOffset=0mm|HoleType=Round|Shape=RoundedRectangle|*
%AMROUNDEDRECTD29*
21,1,1.5000,0.7500,0,0,270.0*
21,1,0.7500,1.5000,0,0,270.0*
1,1,0.7500,-0.3750,-0.3750*
1,1,0.7500,-0.3750,0.3750*
1,1,0.7500,0.3750,0.3750*
1,1,0.7500,0.3750,-0.3750*
%
%ADD29ROUNDEDRECTD29*%
%ADD30C,0.8000*%
%ADD31C,1.2700*%
G36*
X00946150Y00134620D02*
X00725170Y00134620D01*
X00725170Y00374650D01*
X00946150Y00374650D01*
X00946150Y00134620D01*
X00946150Y00134620D02*
G37*
%LPC*%
G36*
X00802580Y00356873D02*
X00795080Y00356873D01*
X00792626Y00356385D01*
X00790545Y00354995D01*
X00789155Y00352914D01*
X00788667Y00350460D01*
X00788667Y00342960D01*
X00788819Y00342193D01*
X00761793Y00315167D01*
X00760951Y00313907D01*
X00760655Y00312420D01*
X00760655Y00293385D01*
X00760318Y00293318D01*
X00759164Y00292546D01*
X00758392Y00291392D01*
X00758122Y00290030D01*
X00758122Y00287535D01*
X00757127Y00286823D01*
X00755582Y00286294D01*
X00754001Y00287206D01*
X00751740Y00287812D01*
X00749400Y00287812D01*
X00747139Y00287206D01*
X00745111Y00286036D01*
X00743456Y00284381D01*
X00742286Y00282353D01*
X00741680Y00280092D01*
X00741680Y00277752D01*
X00742286Y00275491D01*
X00743456Y00273463D01*
X00745111Y00271808D01*
X00747139Y00270638D01*
X00749400Y00270032D01*
X00751740Y00270032D01*
X00754001Y00270638D01*
X00756029Y00271808D01*
X00757684Y00273463D01*
X00758105Y00274194D01*
X00760548Y00273539D01*
X00760645Y00273364D01*
X00760645Y00267698D01*
X00760476Y00267444D01*
X00760241Y00266262D01*
X00760241Y00260737D01*
X00760476Y00259556D01*
X00761145Y00258555D01*
X00762146Y00257886D01*
X00763327Y00257651D01*
X00774352Y00257651D01*
X00775534Y00257886D01*
X00776535Y00258555D01*
X00777204Y00259556D01*
X00777439Y00260737D01*
X00777439Y00266262D01*
X00777204Y00267444D01*
X00776535Y00268445D01*
X00775534Y00269114D01*
X00774352Y00269349D01*
X00768415Y00269349D01*
X00768415Y00275578D01*
X00768742Y00275643D01*
X00769896Y00276414D01*
X00770667Y00277568D01*
X00770938Y00278930D01*
X00770938Y00290030D01*
X00770667Y00291392D01*
X00769896Y00292546D01*
X00768742Y00293318D01*
X00768425Y00293381D01*
X00768425Y00310811D01*
X00794313Y00336699D01*
X00795080Y00336547D01*
X00802580Y00336547D01*
X00805034Y00337035D01*
X00807115Y00338425D01*
X00808505Y00340506D01*
X00808993Y00342960D01*
X00808993Y00350460D01*
X00808505Y00352914D01*
X00807115Y00354995D01*
X00805034Y00356385D01*
X00802580Y00356873D01*
X00802580Y00356873D02*
G37*
G36*
X00810260Y00308685D02*
X00808773Y00308389D01*
X00807513Y00307547D01*
X00806671Y00306287D01*
X00806375Y00304800D01*
X00806671Y00303313D01*
X00807513Y00302053D01*
X00810195Y00299371D01*
X00811456Y00298529D01*
X00812942Y00298233D01*
X00814429Y00298529D01*
X00815689Y00299371D01*
X00816531Y00300631D01*
X00816827Y00302118D01*
X00816531Y00303605D01*
X00815689Y00304865D01*
X00813007Y00307547D01*
X00811747Y00308389D01*
X00810260Y00308685D01*
X00810260Y00308685D02*
G37*
G36*
X00825552Y00356750D02*
X00822908Y00356750D01*
X00820355Y00356066D01*
X00818065Y00354744D01*
X00816196Y00352875D01*
X00814874Y00350585D01*
X00814190Y00348032D01*
X00814190Y00345388D01*
X00814874Y00342835D01*
X00816196Y00340545D01*
X00818065Y00338676D01*
X00818243Y00337327D01*
X00807381Y00326465D01*
X00801370Y00326465D01*
X00799883Y00326169D01*
X00798623Y00325327D01*
X00791003Y00317707D01*
X00790161Y00316447D01*
X00789865Y00314960D01*
X00789865Y00293986D01*
X00789034Y00293407D01*
X00787325Y00292861D01*
X00786642Y00293318D01*
X00785280Y00293588D01*
X00779580Y00293588D01*
X00778218Y00293318D01*
X00777064Y00292546D01*
X00776292Y00291392D01*
X00776022Y00290030D01*
X00776022Y00278930D01*
X00776292Y00277568D01*
X00777064Y00276414D01*
X00778218Y00275643D01*
X00779580Y00275372D01*
X00782245Y00275372D01*
X00782245Y00253960D01*
X00782541Y00252473D01*
X00783383Y00251213D01*
X00789741Y00244856D01*
X00789741Y00241737D01*
X00789976Y00240556D01*
X00790645Y00239555D01*
X00791646Y00238886D01*
X00792828Y00238651D01*
X00803852Y00238651D01*
X00805034Y00238886D01*
X00806035Y00239555D01*
X00806704Y00240556D01*
X00806939Y00241737D01*
X00806939Y00247262D01*
X00806704Y00248444D01*
X00806035Y00249445D01*
X00805034Y00250114D01*
X00803852Y00250349D01*
X00795234Y00250349D01*
X00791409Y00254175D01*
X00791612Y00255513D01*
X00792828Y00257651D01*
X00803852Y00257651D01*
X00805034Y00257886D01*
X00806035Y00258555D01*
X00806577Y00259365D01*
X00820358Y00259365D01*
X00820472Y00258788D01*
X00821244Y00257634D01*
X00822398Y00256863D01*
X00823760Y00256592D01*
X00834860Y00256592D01*
X00836222Y00256863D01*
X00837376Y00257634D01*
X00838148Y00258788D01*
X00838203Y00259065D01*
X00849607Y00259065D01*
X00849682Y00258688D01*
X00850454Y00257534D01*
X00851608Y00256763D01*
X00852970Y00256492D01*
X00864070Y00256492D01*
X00865432Y00256763D01*
X00866586Y00257534D01*
X00869201Y00256875D01*
X00872415Y00253661D01*
X00872415Y00230088D01*
X00872437Y00229979D01*
X00872415Y00229870D01*
X00872415Y00212505D01*
X00846883Y00186973D01*
X00846041Y00185712D01*
X00845745Y00184226D01*
X00845745Y00169346D01*
X00843426Y00168885D01*
X00841345Y00167495D01*
X00839955Y00165414D01*
X00839467Y00162960D01*
X00839467Y00155460D01*
X00839955Y00153006D01*
X00841345Y00150925D01*
X00843426Y00149535D01*
X00845880Y00149047D01*
X00853380Y00149047D01*
X00855834Y00149535D01*
X00857915Y00150925D01*
X00859305Y00153006D01*
X00859793Y00155460D01*
X00859793Y00162960D01*
X00859305Y00165414D01*
X00857915Y00167495D01*
X00855834Y00168885D01*
X00853515Y00169346D01*
X00853515Y00182617D01*
X00879047Y00208149D01*
X00879889Y00209409D01*
X00880185Y00210896D01*
X00880185Y00224715D01*
X00896644Y00224715D01*
X00897105Y00222396D01*
X00898495Y00220315D01*
X00900576Y00218925D01*
X00903030Y00218437D01*
X00910530Y00218437D01*
X00912984Y00218925D01*
X00915065Y00220315D01*
X00916455Y00222396D01*
X00916943Y00224850D01*
X00916943Y00232350D01*
X00916455Y00234804D01*
X00915065Y00236885D01*
X00912984Y00238275D01*
X00910530Y00238763D01*
X00903030Y00238763D01*
X00900576Y00238275D01*
X00898495Y00236885D01*
X00897105Y00234804D01*
X00896644Y00232485D01*
X00880185Y00232485D01*
X00880185Y00255270D01*
X00879889Y00256757D01*
X00879047Y00258017D01*
X00871577Y00265487D01*
X00870317Y00266329D01*
X00868830Y00266625D01*
X00867454Y00266625D01*
X00867357Y00267112D01*
X00866586Y00268266D01*
X00865432Y00269037D01*
X00864070Y00269308D01*
X00861145Y00269308D01*
X00861145Y00275578D01*
X00861472Y00275643D01*
X00862626Y00276414D01*
X00863398Y00277568D01*
X00863668Y00278930D01*
X00863668Y00290030D01*
X00863398Y00291392D01*
X00862626Y00292546D01*
X00861472Y00293318D01*
X00860110Y00293588D01*
X00854410Y00293588D01*
X00853048Y00293318D01*
X00851894Y00292546D01*
X00851123Y00291392D01*
X00850852Y00290030D01*
X00850852Y00278930D01*
X00851123Y00277568D01*
X00851894Y00276414D01*
X00853048Y00275643D01*
X00853375Y00275578D01*
X00853375Y00269308D01*
X00852970Y00269308D01*
X00851608Y00269037D01*
X00850454Y00268266D01*
X00849682Y00267112D01*
X00849627Y00266835D01*
X00838223Y00266835D01*
X00838148Y00267212D01*
X00837376Y00268366D01*
X00836222Y00269137D01*
X00834860Y00269408D01*
X00823760Y00269408D01*
X00822398Y00269137D01*
X00821244Y00268366D01*
X00820472Y00267212D01*
X00820457Y00267135D01*
X00806766Y00267135D01*
X00806704Y00267444D01*
X00806035Y00268445D01*
X00805034Y00269114D01*
X00803852Y00269349D01*
X00792828Y00269349D01*
X00792555Y00269295D01*
X00790406Y00270607D01*
X00790015Y00271079D01*
X00790015Y00278080D01*
X00791854Y00280595D01*
X00796222Y00280595D01*
X00796222Y00278930D01*
X00796492Y00277568D01*
X00797264Y00276414D01*
X00798418Y00275643D01*
X00799780Y00275372D01*
X00805480Y00275372D01*
X00806842Y00275643D01*
X00807996Y00276414D01*
X00808767Y00277568D01*
X00809038Y00278930D01*
X00809038Y00290030D01*
X00808767Y00291392D01*
X00807996Y00292546D01*
X00806842Y00293318D01*
X00805480Y00293588D01*
X00799780Y00293588D01*
X00797635Y00295616D01*
X00797635Y00313351D01*
X00802979Y00318695D01*
X00808990Y00318695D01*
X00810477Y00318991D01*
X00811737Y00319833D01*
X00826045Y00334141D01*
X00826887Y00335401D01*
X00827182Y00336888D01*
X00827182Y00337107D01*
X00828105Y00337354D01*
X00830395Y00338676D01*
X00832264Y00340545D01*
X00833586Y00342835D01*
X00834270Y00345388D01*
X00834270Y00348032D01*
X00833586Y00350585D01*
X00832264Y00352875D01*
X00830395Y00354744D01*
X00828105Y00356066D01*
X00825552Y00356750D01*
X00825552Y00356750D02*
G37*
G36*
X00908102Y00289440D02*
X00905458Y00289440D01*
X00902905Y00288756D01*
X00900615Y00287434D01*
X00898746Y00285565D01*
X00897424Y00283275D01*
X00896740Y00280722D01*
X00896740Y00278078D01*
X00897424Y00275525D01*
X00898746Y00273235D01*
X00900615Y00271366D01*
X00902905Y00270044D01*
X00905458Y00269360D01*
X00908102Y00269360D01*
X00910655Y00270044D01*
X00912945Y00271366D01*
X00914814Y00273235D01*
X00916136Y00275525D01*
X00916820Y00278078D01*
X00916820Y00280722D01*
X00916136Y00283275D01*
X00914814Y00285565D01*
X00912945Y00287434D01*
X00910655Y00288756D01*
X00908102Y00289440D01*
X00908102Y00289440D02*
G37*
G36*
X00834860Y00251508D02*
X00823760Y00251508D01*
X00822398Y00251238D01*
X00821244Y00250466D01*
X00820472Y00249312D01*
X00820202Y00247950D01*
X00820202Y00242250D01*
X00820472Y00240888D01*
X00821244Y00239734D01*
X00822398Y00238962D01*
X00823760Y00238692D01*
X00825425Y00238692D01*
X00825425Y00234107D01*
X00824750Y00233502D01*
X00822885Y00232474D01*
X00822110Y00232628D01*
X00816410Y00232628D01*
X00815048Y00232358D01*
X00813894Y00231586D01*
X00813122Y00230432D01*
X00812852Y00229070D01*
X00812852Y00217970D01*
X00812984Y00217306D01*
X00812513Y00216376D01*
X00811853Y00215567D01*
X00811213Y00215042D01*
X00808790Y00215555D01*
X00807998Y00216552D01*
X00807642Y00217334D01*
X00807768Y00217970D01*
X00807768Y00229070D01*
X00807497Y00230432D01*
X00806726Y00231586D01*
X00805572Y00232358D01*
X00804210Y00232628D01*
X00798510Y00232628D01*
X00797148Y00232358D01*
X00795994Y00231586D01*
X00795222Y00230432D01*
X00794952Y00229070D01*
X00794952Y00227405D01*
X00788738Y00227405D01*
X00788738Y00229070D01*
X00788467Y00230432D01*
X00787696Y00231586D01*
X00786542Y00232358D01*
X00785180Y00232628D01*
X00779480Y00232628D01*
X00778465Y00232426D01*
X00777570Y00232754D01*
X00775925Y00233947D01*
X00775925Y00236340D01*
X00775918Y00236372D01*
X00775534Y00238886D01*
X00776535Y00239555D01*
X00777204Y00240556D01*
X00777439Y00241737D01*
X00777439Y00247262D01*
X00777204Y00248444D01*
X00776535Y00249445D01*
X00775534Y00250114D01*
X00774352Y00250349D01*
X00763327Y00250349D01*
X00762146Y00250114D01*
X00761145Y00249445D01*
X00760476Y00248444D01*
X00760241Y00247262D01*
X00760241Y00241737D01*
X00760476Y00240556D01*
X00761145Y00239555D01*
X00762146Y00238886D01*
X00763327Y00238651D01*
X00765757Y00238651D01*
X00766031Y00237273D01*
X00766873Y00236013D01*
X00767768Y00235118D01*
X00767441Y00233449D01*
X00767099Y00232628D01*
X00761580Y00232628D01*
X00760218Y00232358D01*
X00759064Y00231586D01*
X00758292Y00230432D01*
X00758022Y00229070D01*
X00758022Y00217970D01*
X00758292Y00216608D01*
X00759064Y00215454D01*
X00760218Y00214683D01*
X00760655Y00214596D01*
X00760655Y00209550D01*
X00760951Y00208063D01*
X00761793Y00206803D01*
X00768143Y00200453D01*
X00769403Y00199611D01*
X00770890Y00199315D01*
X00799095Y00199315D01*
X00799274Y00198649D01*
X00800826Y00195961D01*
X00803021Y00193766D01*
X00805709Y00192213D01*
X00808708Y00191410D01*
X00811812Y00191410D01*
X00814811Y00192213D01*
X00817499Y00193766D01*
X00819694Y00195961D01*
X00821246Y00198649D01*
X00822050Y00201648D01*
X00822050Y00204752D01*
X00821246Y00207751D01*
X00819694Y00210439D01*
X00818262Y00211872D01*
X00819314Y00214412D01*
X00822110Y00214412D01*
X00822885Y00214566D01*
X00824750Y00213538D01*
X00825425Y00212933D01*
X00825425Y00169250D01*
X00822908Y00169250D01*
X00820355Y00168566D01*
X00818065Y00167244D01*
X00816196Y00165375D01*
X00814874Y00163085D01*
X00814190Y00160532D01*
X00814190Y00157888D01*
X00814874Y00155335D01*
X00816196Y00153045D01*
X00818065Y00151176D01*
X00820355Y00149854D01*
X00822908Y00149170D01*
X00825552Y00149170D01*
X00828105Y00149854D01*
X00830395Y00151176D01*
X00832264Y00153045D01*
X00833586Y00155335D01*
X00834270Y00157888D01*
X00834270Y00160532D01*
X00833586Y00163085D01*
X00832538Y00164901D01*
X00832899Y00165441D01*
X00833195Y00166928D01*
X00833195Y00212384D01*
X00835340Y00214412D01*
X00841040Y00214412D01*
X00842402Y00214683D01*
X00843556Y00215454D01*
X00844327Y00216608D01*
X00844598Y00217970D01*
X00844598Y00229070D01*
X00844327Y00230432D01*
X00843556Y00231586D01*
X00842402Y00232358D01*
X00841040Y00232628D01*
X00835340Y00232628D01*
X00833195Y00234656D01*
X00833195Y00238692D01*
X00834860Y00238692D01*
X00836222Y00238962D01*
X00837376Y00239734D01*
X00838148Y00240888D01*
X00838418Y00242250D01*
X00838418Y00247950D01*
X00838148Y00249312D01*
X00837376Y00250466D01*
X00836222Y00251238D01*
X00834860Y00251508D01*
X00834860Y00251508D02*
G37*
%LPD*%
D13*
X00750570Y00279400D02*
X00759450Y00279400D01*
X00759504Y00279454D01*
X00762000Y00279454D01*
X00764530Y00281984D01*
X00764530Y00284480D01*
X00764530Y00265480D01*
X00765850Y00264160D01*
X00768350Y00264160D01*
X00786130Y00278080D02*
X00782430Y00281780D01*
X00782430Y00284480D01*
X00783590Y00284480D02*
X00793750Y00284480D01*
X00793750Y00314960D01*
X00801370Y00322580D01*
X00808990Y00322580D01*
X00823298Y00336888D01*
X00823298Y00345778D01*
X00824230Y00346710D01*
X00798830Y00346710D02*
X00764540Y00312420D01*
X00764540Y00284480D01*
X00786130Y00278080D02*
X00786130Y00253960D01*
X00795590Y00244500D01*
X00796900Y00244500D01*
X00797560Y00243840D01*
X00796900Y00244500D02*
X00798340Y00244500D01*
X00796900Y00244500D02*
X00796150Y00245250D01*
X00800100Y00223520D02*
X00801370Y00224790D01*
X00800100Y00223520D02*
X00782330Y00223520D01*
X00781060Y00224790D01*
X00773528Y00224790D01*
X00772040Y00226278D01*
X00772040Y00236340D01*
X00769620Y00238760D01*
X00769620Y00242570D01*
X00764540Y00223520D02*
X00764540Y00209550D01*
X00770890Y00203200D01*
X00810260Y00203200D01*
X00819260Y00223520D02*
X00829310Y00223520D01*
X00838190Y00223520D01*
X00838200Y00223520D01*
X00849630Y00184226D02*
X00876300Y00210896D01*
X00876300Y00229870D01*
X00876409Y00229979D02*
X00877788Y00228600D01*
X00905510Y00228600D01*
X00876300Y00255270D02*
X00876300Y00230088D01*
X00876300Y00255270D02*
X00868830Y00262740D01*
X00858680Y00262740D01*
X00858520Y00262900D01*
X00857260Y00264160D01*
X00857260Y00283200D01*
X00857250Y00283210D01*
X00858460Y00262950D02*
X00829360Y00262950D01*
X00829310Y00263000D01*
X00828950Y00263250D02*
X00798590Y00263250D01*
X00798340Y00263500D01*
X00829310Y00243840D02*
X00829310Y00223520D01*
X00829310Y00166928D01*
X00824230Y00161848D01*
X00824230Y00159210D01*
X00849630Y00159210D02*
X00849630Y00184226D01*
X00812942Y00302118D02*
X00810260Y00304800D01*
X00802630Y00284480D02*
X00796508Y00284480D01*
X00793750Y00284480D01*
D14*
X00764430Y00223520D02*
D03*
X00782330Y00223520D02*
D03*
X00801360Y00223520D02*
D03*
X00819260Y00223520D02*
D03*
X00838190Y00223520D02*
D03*
X00856090Y00223520D02*
D03*
X00857260Y00284480D02*
D03*
X00839360Y00284480D02*
D03*
X00820530Y00284480D02*
D03*
X00802630Y00284480D02*
D03*
X00782430Y00284480D02*
D03*
X00764530Y00284480D02*
D03*
D15*
X00829310Y00245100D02*
D03*
X00858520Y00245000D02*
D03*
X00858520Y00262900D02*
D03*
X00829310Y00263000D02*
D03*
D16*
X00768840Y00244500D02*
D03*
X00798340Y00244500D02*
D03*
X00798340Y00263500D02*
D03*
X00768840Y00263500D02*
D03*
X00768840Y00254000D02*
D03*
D20*
X00810260Y00203200D02*
D03*
D21*
X00810260Y00304800D02*
D03*
D26*
X00902970Y00177800D02*
D03*
X00900430Y00334010D02*
D03*
D27*
X00798830Y00159210D02*
D03*
X00824230Y00159210D02*
D03*
X00906780Y00254000D02*
D03*
X00906780Y00279400D02*
D03*
X00849630Y00346710D02*
D03*
X00824230Y00346710D02*
D03*
D28*
X00798830Y00346710D02*
D03*
X00849630Y00159210D02*
D03*
D29*
X00906780Y00228600D02*
D03*
D30*
X00740000Y00140000D02*
D03*
X00760000Y00140000D02*
D03*
X00780000Y00140000D02*
D03*
X00800000Y00140000D02*
D03*
X00820000Y00140000D02*
D03*
X00840001Y00140000D02*
D03*
X00860001Y00140000D02*
D03*
X00880001Y00140000D02*
D03*
X00900001Y00140000D02*
D03*
X00920001Y00140000D02*
D03*
X00930001Y00200000D02*
D03*
X00920001Y00220000D02*
D03*
X00930001Y00240000D02*
D03*
X00920001Y00260000D02*
D03*
X00930001Y00280000D02*
D03*
X00920001Y00300000D02*
D03*
X00900001Y00300000D02*
D03*
X00880001Y00300000D02*
D03*
X00850001Y00320000D02*
D03*
X00860001Y00300000D02*
D03*
X00840001Y00300000D02*
D03*
X00845892Y00271150D02*
D03*
X00867482Y00234320D02*
D03*
X00890001Y00240000D02*
D03*
X00850001Y00200000D02*
D03*
X00860001Y00180000D02*
D03*
X00840001Y00180000D02*
D03*
X00870001Y00160000D02*
D03*
X00811530Y00237490D02*
D03*
X00780000Y00180000D02*
D03*
X00770000Y00160000D02*
D03*
X00800000Y00180000D02*
D03*
X00750000Y00240000D02*
D03*
X00740000Y00220000D02*
D03*
X00750000Y00200000D02*
D03*
X00760000Y00180000D02*
D03*
X00740000Y00180000D02*
D03*
X00750000Y00160000D02*
D03*
X00740000Y00260000D02*
D03*
X00780000Y00300000D02*
D03*
X00750000Y00320000D02*
D03*
X00740000Y00300000D02*
D03*
X00780000Y00340000D02*
D03*
X00790000Y00360000D02*
D03*
X00810000Y00360000D02*
D03*
X00830000Y00360000D02*
D03*
X00830000Y00320000D02*
D03*
X00870001Y00360000D02*
D03*
X00930001Y00360000D02*
D03*
X00770000Y00360000D02*
D03*
X00750000Y00360000D02*
D03*
X00760000Y00340000D02*
D03*
X00740000Y00340000D02*
D03*
D31*
X00750570Y00278922D02*
D03*
M02*
