M48
;Layer_Color=6899487
;FILE_FORMAT=4:4
METRIC
;TYPE=PLATED
T01F00S00C0.4110
T02F00S00C0.7112
T03F00S00C1.0000
T04F00S00C1.2000
T05F00S00C3.4000
%
T01
X00740000Y00140000
X00760000
X00780000
X00770000Y00160000
X00750000
X00760000Y00180000
X00780000
X00740000
X00750000Y00200000
X00740000Y00220000
X00750000Y00240000
X00740000Y00260000
Y00300000
X00750000Y00320000
X00760000Y00340000
X00780000
X00790000Y00360000
X00770000
X00750000
X00740000Y00340000
X00780000Y00300000
X00840001
X00860001
X00880001
X00900001
X00920001
X00930001Y00280000
X00920001Y00260000
X00930001Y00240000
X00920001Y00220000
X00930001Y00200000
X00920001Y00140000
X00900001
X00880001
X00860001
X00840001
X00820000
X00800000
Y00180000
X00840001
X00860001
X00870001Y00160000
X00850001Y00200000
X00867482Y00234320
X00890001Y00240000
X00845892Y00271150
X00850001Y00320000
X00830000
Y00360000
X00810000
X00870001
X00930001
X00811530Y00237490
T02
X00750570Y00278922
T03
X00798830Y00159210
X00824230
X00849630
X00906780Y00228600
Y00254000
Y00279400
X00849630Y00346710
X00824230
X00798830
T04
X00810260Y00203200
Y00304800
T05
X00902970Y00177800
X00900430Y00334010
M30
